<?xml version="1.0" encoding="UTF-8"?>
<svg width="114px" height="32px" viewBox="0 0 114 32" version="1.1" xmlns="http://www.w3.org/2000/svg" xmlns:xlink="http://www.w3.org/1999/xlink">
    <!-- Generator: Sketch 49.3 (51167) - http://www.bohemiancoding.com/sketch -->
    <title>Chicago Dental Logo</title>
    <desc>Created with Sketch.</desc>
    <defs></defs>
    <g id="Page-1" stroke="none" stroke-width="1" fill="none" fill-rule="evenodd">
        <g id="Desktop-HD" transform="translate(-367.000000, -267.000000)">
            <g id="Chicago-Dental-Logo" transform="translate(367.000000, 267.000000)">
                <path d="M10.3156888,3.91542318 C9.91961086,3.42615041 9.52353885,3.09997346 9.12746089,2.93688254 C8.73138294,2.77379161 8.31783716,2.69224737 7.88681115,2.69224737 C7.24609681,2.69224737 6.64907649,2.80582685 6.09573229,3.03298921 C5.54238808,3.26015156 5.05021036,3.57467934 4.61918435,3.97658197 C4.18815834,4.3784846 3.83285844,4.84736397 3.553274,5.38323415 C3.27368956,5.91910433 3.09312732,6.49573858 3.01158186,7.11315422 C2.91838705,7.77716726 2.93294852,8.38874905 3.05526671,8.94791793 C3.1775849,9.50708681 3.39600697,9.99052765 3.71053946,10.398255 C4.02507196,10.8059823 4.42696856,11.1263346 4.91624133,11.3593217 C5.4055141,11.5923087 5.97049918,11.7088005 6.61121352,11.7088005 C7.11213564,11.7088005 7.61305025,11.5893964 8.11397237,11.3505847 C8.61489449,11.111773 9.10998451,10.7302624 9.59925728,10.2060416 L11.2418076,11.4991132 C10.5661453,12.2679704 9.80312416,12.8271309 8.95272149,13.1766114 C8.10231882,13.526092 7.22280597,13.7008296 6.31415654,13.7008296 C5.3589097,13.7008296 4.5026952,13.546478 3.74548734,13.2377702 C2.98827949,12.9290624 2.36213623,12.4922183 1.86703878,11.9272247 C1.37194134,11.3622312 1.01664144,10.6836666 0.801128436,9.8915107 C0.58561543,9.09935478 0.547755606,8.21984193 0.687547825,7.25294574 C0.827340045,6.26275085 1.11565717,5.36285193 1.55250786,4.553222 C1.98935855,3.74359206 2.53686986,3.05337832 3.19505823,2.48256009 C3.8532466,1.91174186 4.60461851,1.47198543 5.4491965,1.16327762 C6.2937745,0.854569797 7.19367341,0.700218203 8.14892025,0.700218203 C8.98767357,0.700218203 9.74195777,0.848745209 10.4117955,1.14580368 C11.0816332,1.44286214 11.6786535,1.94668904 12.2028744,2.65729949 L10.3156888,3.91542318 Z M14.5367375,6.16956145 L14.5716854,6.16956145 C14.7813737,5.8200809 15.1133753,5.50264083 15.5677,5.21723172 C16.0220247,4.9318226 16.5753606,4.78912019 17.2277243,4.78912019 C17.7868932,4.78912019 18.2499479,4.8823136 18.6169025,5.06870323 C18.9838571,5.25509285 19.2663496,5.49972557 19.4643886,5.80260871 C19.6624276,6.10549185 19.784744,6.45496716 19.8313414,6.85104512 C19.8779388,7.24712307 19.8721142,7.66066885 19.8138674,8.09169487 L19.0799619,13.3862987 L16.9830891,13.3862987 L17.5772031,9.14013127 C17.6121511,8.90714424 17.6354495,8.64795005 17.6470988,8.36254094 C17.6587482,8.07713182 17.6325375,7.80920075 17.5684661,7.55873969 C17.5043947,7.30827863 17.379166,7.09859345 17.1927764,6.92967785 C17.0063868,6.76076225 16.7326311,6.67630572 16.3715012,6.67630572 C16.0220207,6.67630572 15.7191421,6.7345516 15.4628563,6.85104512 C15.2065706,6.96753863 14.9881485,7.12480252 14.8075836,7.3228415 C14.6270186,7.52088048 14.4814039,7.74803943 14.3707351,8.00432516 C14.2600662,8.2606109 14.1872589,8.52854197 14.1523108,8.80812641 L13.523249,13.3862987 L11.4263762,13.3862987 L13.2786138,0.176 L15.3754866,0.176 L14.5367375,6.16956145 Z M21.8157257,4.99880747 L23.9125985,4.99880747 L22.7418445,13.3862987 L20.6449717,13.3862987 L21.8157257,4.99880747 Z M21.9205694,2.15055523 C21.9671668,1.81272403 22.1331675,1.51858232 22.4185766,1.26812126 C22.7039858,1.0176602 23.0388996,0.892431544 23.4233282,0.892431544 C23.8077568,0.892431544 24.11646,1.01183561 24.349447,1.25064732 C24.5824341,1.48945902 24.6698029,1.78942533 24.6115561,2.15055523 C24.5533094,2.51168513 24.3785717,2.81165144 24.0873379,3.05046315 C23.7961041,3.28927486 23.458278,3.40867892 23.0738494,3.40867892 C22.6894208,3.40867892 22.3894545,3.28345027 22.1739415,3.03298921 C21.9584285,2.78252815 21.8739719,2.48838643 21.9205694,2.15055523 Z M30.8595819,7.51505484 C30.6498935,7.25876911 30.4198223,7.05490851 30.1693612,6.90346694 C29.9189002,6.75202537 29.6538814,6.67630572 29.374297,6.67630572 C28.9898684,6.67630572 28.6374807,6.74620078 28.3171236,6.885993 C27.9967664,7.02578522 27.7142739,7.21217205 27.4696375,7.44515908 C27.2250011,7.67814611 27.0240528,7.94607718 26.8667866,8.24896033 C26.7095203,8.55184347 26.60759,8.86637125 26.5609926,9.19255309 C26.5143952,9.51873494 26.5260444,9.83326271 26.5959405,10.1361459 C26.6658366,10.439029 26.7910652,10.7069601 26.9716302,10.9399471 C27.1521951,11.1729341 27.3851787,11.359321 27.6705878,11.4991132 C27.9559969,11.6389054 28.2909107,11.7088005 28.6753394,11.7088005 C29.0015212,11.7088005 29.3131367,11.6418177 29.6101951,11.5078502 C29.9072536,11.3738826 30.1722724,11.1787589 30.4052594,10.9224732 L31.5934873,12.425232 C31.348851,12.6349203 31.0809199,12.8154826 30.7896861,12.9669242 C30.4984523,13.1183657 30.2072229,13.2406821 29.9159891,13.3338769 C29.6247553,13.4270717 29.3480874,13.4940545 29.0859769,13.5348272 C28.8238665,13.5755999 28.5996199,13.595986 28.4132303,13.595986 C27.7841653,13.595986 27.2046187,13.4911434 26.6745732,13.2814551 C26.1445277,13.0717667 25.701859,12.7747127 25.3465538,12.3902841 C24.9912485,12.0058555 24.7320544,11.5428007 24.5689634,11.0011059 C24.4058725,10.459411 24.370925,9.85656614 24.4641198,9.19255309 C24.5573146,8.52854005 24.7611752,7.92569514 25.0757077,7.38400029 C25.3902402,6.84230544 25.7804876,6.37925066 26.2464617,5.99482205 C26.7124357,5.61039345 27.239561,5.31333944 27.8278533,5.10365111 C28.4161455,4.89396278 29.024815,4.78912019 29.65388,4.78912019 C30.1897502,4.78912019 30.7139631,4.89105048 31.2265346,5.09491414 C31.7391061,5.29877779 32.164301,5.62204245 32.5021322,6.06471781 L30.8595819,7.51505484 Z M37.282347,12.2330187 L37.2299252,12.2330187 C36.8571459,12.7106421 36.4232141,13.0572051 35.9281166,13.2727181 C35.4330192,13.4882311 34.9058939,13.595986 34.3467251,13.595986 C33.9622965,13.595986 33.5924351,13.5435647 33.2371299,13.4387205 C32.8818246,13.3338764 32.5760338,13.1766125 32.319748,12.9669242 C32.0634623,12.7572358 31.8712509,12.4951293 31.743108,12.1805968 C31.6149651,11.8660644 31.5800176,11.4991153 31.6382644,11.0797386 C31.7314592,10.4040762 31.9819165,9.87112638 32.3896438,9.4808731 C32.7973711,9.09061982 33.2808119,8.79647811 33.8399808,8.59843913 C34.3991497,8.40040015 34.9903454,8.27808379 35.6135857,8.23148639 C36.236826,8.18488898 36.810548,8.16159063 37.3347688,8.16159063 L37.858987,8.16159063 L37.876461,7.9344294 C37.9580064,7.41020858 37.8356901,7.01704886 37.5095082,6.75493845 C37.1833264,6.49282804 36.7406577,6.3617748 36.1814888,6.3617748 C35.7388134,6.3617748 35.3136185,6.44040674 34.9058911,6.59767299 C34.4981638,6.75493923 34.1370394,6.96753671 33.8225069,7.2354718 L32.8789141,6.13461357 C33.4031349,5.65699016 33.9943306,5.31333944 34.652519,5.10365111 C35.3107074,4.89396278 35.9717982,4.78912019 36.6358112,4.78912019 C37.2299282,4.78912019 37.7221059,4.85610295 38.1123592,4.9900705 C38.5026124,5.12403804 38.8171402,5.2958634 39.0559519,5.50555173 C39.2947636,5.71524006 39.466589,5.95696048 39.5714332,6.23072024 C39.6762773,6.50448001 39.7403478,6.78114796 39.7636465,7.0607324 C39.7869452,7.34031684 39.7840329,7.6111602 39.7549095,7.87327061 C39.7257861,8.13538103 39.6995755,8.36545227 39.6762768,8.56349125 L39.0122671,13.3862987 L37.1250815,13.3862987 L37.282347,12.2330187 Z M37.5269822,9.62940159 L37.0901337,9.62940159 C36.7988999,9.62940159 36.4698106,9.64105077 36.102856,9.66434947 C35.7359015,9.68764818 35.3864262,9.74298177 35.0544196,9.83035191 C34.7224131,9.91772204 34.434096,10.045863 34.1894596,10.2147786 C33.9448232,10.3836942 33.7992085,10.61959 33.7526111,10.9224732 C33.7293124,11.1205121 33.7526108,11.2865129 33.8225069,11.4204805 C33.892403,11.554448 33.991421,11.6680275 34.1195638,11.7612223 C34.2477067,11.8544171 34.3933214,11.9213999 34.5564123,11.9621726 C34.7195033,12.0029453 34.8884163,12.0233314 35.0631566,12.0233314 C35.7854164,12.0233314 36.3445769,11.851506 36.7406549,11.5078502 C37.1367328,11.1641943 37.3755409,10.6953149 37.4570864,10.101198 L37.5269822,9.62940159 Z M50.2228918,4.99880747 L49.1569815,12.6349193 C49.0521373,13.3921271 48.8628382,14.0765163 48.5890784,14.6881073 C48.3153186,15.2996982 47.9541942,15.8180866 47.5056941,16.2432879 C47.0571941,16.6684893 46.5184196,16.9975785 45.8893547,17.2305655 C45.2602897,17.4635526 44.5380407,17.5800443 43.7225861,17.5800443 C42.9420795,17.5800443 42.2169183,17.4810263 41.5470805,17.2829874 C40.8772428,17.0849484 40.2802225,16.7238239 39.7560017,16.1996031 L41.2587605,14.4871569 C41.6198904,14.8715855 42.0130501,15.1686396 42.4382515,15.3783279 C42.8634528,15.5880162 43.3731043,15.6928588 43.9672212,15.6928588 C44.4681434,15.6928588 44.8991629,15.6229637 45.2602928,15.4831715 C45.6214227,15.3433793 45.921389,15.1511679 46.1602007,14.9065315 C46.3990124,14.6618951 46.5883116,14.3677534 46.7281038,14.0240975 C46.867896,13.6804417 46.966914,13.2989311 47.0251608,12.8795545 L47.0950565,12.2679665 L47.0601086,12.2679665 C46.6989787,12.6756939 46.25631,12.9814848 45.7320892,13.1853484 C45.2078684,13.3892121 44.6836554,13.4911424 44.1594346,13.4911424 C43.5303696,13.4911424 42.9741214,13.3775629 42.4906733,13.1504005 C42.0072252,12.9232382 41.6111532,12.6174473 41.3024454,12.2330187 C40.9937376,11.8485901 40.7753155,11.3942722 40.6471726,10.8700513 C40.5190298,10.3458305 40.4957314,9.78667003 40.5772769,9.19255309 C40.6588223,8.57513745 40.83356,7.9985032 41.1014951,7.46263302 C41.3694302,6.92676285 41.7101686,6.46079577 42.1237206,6.06471781 C42.5372725,5.66863986 43.0148888,5.35702438 43.5565837,5.12986202 C44.0982785,4.90269966 44.6952988,4.78912019 45.3476625,4.78912019 C45.9417794,4.78912019 46.4776416,4.90561196 46.955265,5.13859899 C47.4328884,5.37158602 47.7881883,5.74435968 48.0211753,6.25693115 L48.0561232,6.25693115 L48.2308626,4.99880747 L50.2228918,4.99880747 Z M45.504928,6.67630572 C45.1321487,6.67630572 44.7855857,6.7374639 44.4652285,6.85978209 C44.1448714,6.98210028 43.8623788,7.15101335 43.6177424,7.36652635 C43.3731061,7.58203936 43.1663332,7.84414584 42.9974176,8.15285366 C42.828502,8.46156147 42.7207471,8.8022999 42.6741497,9.17507915 C42.6275523,9.51291035 42.6479383,9.82743813 42.7353085,10.1186719 C42.8226786,10.4099057 42.9595564,10.6661876 43.1459461,10.8875253 C43.3323357,11.108863 43.5682315,11.2836006 43.8536406,11.4117435 C44.1390497,11.5398864 44.4564898,11.6039568 44.8059704,11.6039568 C45.190399,11.6039568 45.5456989,11.5398864 45.8718807,11.4117435 C46.1980626,11.2836006 46.4834674,11.1117753 46.7281038,10.8962623 C46.9727402,10.6807492 47.1736885,10.4215551 47.3309547,10.1186719 C47.488221,9.81578877 47.5959758,9.48961182 47.6542226,9.14013127 C47.7474174,8.40622212 47.604715,7.8121141 47.2261111,7.35778938 C46.8475071,6.90346467 46.2737852,6.67630572 45.504928,6.67630572 Z M50.7394652,9.19255309 C50.83266,8.52854005 51.0365206,7.92569514 51.3510531,7.38400029 C51.6655856,6.84230544 52.055833,6.37925066 52.5218071,5.99482205 C52.9877811,5.61039345 53.5149064,5.31333944 54.1031987,5.10365111 C54.6914909,4.89396278 55.3001604,4.78912019 55.9292254,4.78912019 C56.5582904,4.78912019 57.1349246,4.89396278 57.6591455,5.10365111 C58.1833663,5.31333944 58.6231227,5.61039345 58.9784279,5.99482205 C59.3337332,6.37925066 59.5929274,6.84230544 59.7560183,7.38400029 C59.9191092,7.92569514 59.9540567,8.52854005 59.8608619,9.19255309 C59.7676671,9.85656614 59.5638065,10.459411 59.249274,11.0011059 C58.9347415,11.5428007 58.5474064,12.0058555 58.087257,12.3902841 C57.6271076,12.7747127 57.1028946,13.0717667 56.5146024,13.2814551 C55.9263101,13.4911434 55.3176406,13.595986 54.6885756,13.595986 C54.0595107,13.595986 53.4799641,13.4911434 52.9499186,13.2814551 C52.4198731,13.0717667 51.9772044,12.7747127 51.6218992,12.3902841 C51.2665939,12.0058555 51.0073997,11.5428007 50.8443088,11.0011059 C50.6812179,10.459411 50.6462704,9.85656614 50.7394652,9.19255309 Z M52.836338,9.19255309 C52.7897406,9.51873494 52.8013898,9.83326271 52.8712859,10.1361459 C52.941182,10.439029 53.0664106,10.7069601 53.2469756,10.9399471 C53.4275405,11.1729341 53.6605241,11.359321 53.9459332,11.4991132 C54.2313423,11.6389054 54.5662561,11.7088005 54.9506847,11.7088005 C55.3351134,11.7088005 55.6904132,11.6389054 56.0165951,11.4991132 C56.3427769,11.359321 56.6281818,11.1729341 56.8728182,10.9399471 C57.1174545,10.7069601 57.3154906,10.439029 57.4669321,10.1361459 C57.6183737,9.83326271 57.7173917,9.51873494 57.7639891,9.19255309 C57.8105865,8.86637125 57.7989373,8.55184347 57.7290412,8.24896033 C57.6591451,7.94607718 57.5339165,7.67814611 57.3533515,7.44515908 C57.1727866,7.21217205 56.939803,7.02578522 56.6543939,6.885993 C56.3689848,6.74620078 56.034071,6.67630572 55.6496424,6.67630572 C55.2652137,6.67630572 54.9128261,6.74620078 54.592469,6.885993 C54.2721118,7.02578522 53.9896193,7.21217205 53.7449829,7.44515908 C53.5003465,7.67814611 53.2993982,7.94607718 53.1421319,8.24896033 C52.9848657,8.55184347 52.8829354,8.86637125 52.836338,9.19255309 Z M66.642935,1.01474912 L71.5181643,1.01474912 C72.3336189,1.01474912 73.1024646,1.13997778 73.8247244,1.39043884 C74.5469842,1.6408999 75.1614782,2.02241044 75.668225,2.53498191 C76.1749718,3.04755339 76.5506578,3.69117041 76.7952942,4.46585229 C77.0399306,5.24053418 77.0865273,6.15208227 76.9350857,7.20052392 C76.7836441,8.26061492 76.4516426,9.1779876 75.9390711,9.95266949 C75.4264996,10.7273514 74.8207424,11.3680561 74.1217813,11.8748029 C73.4228202,12.3815497 72.668536,12.7601479 71.8589061,13.010609 C71.0492762,13.2610701 70.2716936,13.3862987 69.5261351,13.3862987 L64.9130149,13.3862987 L66.642935,1.01474912 Z M69.0368648,11.3942695 C69.7241765,11.3942695 70.382355,11.3156376 71.01142,11.1583714 C71.640485,11.0011051 72.2054701,10.7564724 72.7063922,10.4244659 C73.2073143,10.0924593 73.6266847,9.6614398 73.9645159,9.1313943 C74.3023471,8.6013488 74.5236814,7.95773178 74.6285256,7.20052392 C74.7333698,6.45496541 74.7071591,5.81426068 74.5498929,5.27839051 C74.3926266,4.74252033 74.1305201,4.30858849 73.7635656,3.97658197 C73.396611,3.64457545 72.9422931,3.39994273 72.4005982,3.24267649 C71.8589034,3.08541024 71.2502339,3.0067783 70.5745715,3.0067783 L68.5650684,3.0067783 L67.3943144,11.3942695 L69.0368648,11.3942695 Z M79.2864228,9.92645858 C79.2747734,10.2409911 79.3184579,10.5205713 79.4174773,10.7652077 C79.5164968,11.0098441 79.6533747,11.216617 79.8281149,11.3855326 C80.0028552,11.5544482 80.2125404,11.6855014 80.4571768,11.7786962 C80.7018132,11.871891 80.9697442,11.9184877 81.260978,11.9184877 C81.7851988,11.9184877 82.242429,11.8107329 82.6326823,11.5952199 C83.0229356,11.3797068 83.3694986,11.1088635 83.6723818,10.7826816 L85.0178751,11.9184877 C84.4470569,12.524254 83.8412997,12.9552736 83.2005854,13.2115593 C82.559871,13.4678451 81.9075171,13.595986 81.2435041,13.595986 C80.6144391,13.595986 80.0348925,13.4911434 79.504847,13.2814551 C78.9748015,13.0717667 78.5321328,12.7747127 78.1768276,12.3902841 C77.8215224,12.0058555 77.5623282,11.5428007 77.3992373,11.0011059 C77.2361463,10.459411 77.2011988,9.85656614 77.2943936,9.19255309 C77.3875884,8.52854005 77.591449,7.92569514 77.9059815,7.38400029 C78.220514,6.84230544 78.6107614,6.37925066 79.0767355,5.99482205 C79.5427096,5.61039345 80.0698348,5.31333944 80.6581271,5.10365111 C81.2464193,4.89396278 81.8550888,4.78912019 82.4841538,4.78912019 C83.6607383,4.78912019 84.5519004,5.18227991 85.1576667,5.96861114 C85.763433,6.75494238 85.9672935,7.88200024 85.7692546,9.34981855 L85.6818849,9.92645858 L79.2864228,9.92645858 Z M83.8121733,8.35380397 C83.8937187,7.73638833 83.7714024,7.25003519 83.4452205,6.89472997 C83.1190387,6.53942474 82.6239487,6.3617748 81.9599356,6.3617748 C81.3308706,6.3617748 80.8066577,6.54233704 80.387281,6.90346694 C79.9679044,7.26459684 79.6766749,7.74803768 79.513584,8.35380397 L83.8121733,8.35380397 Z M87.4915298,4.99880747 L89.483559,4.99880747 L89.2913457,6.34430086 L89.3262935,6.34430086 C89.5825793,5.9249242 89.9378792,5.56088742 90.3922039,5.2521796 C90.8465286,4.94347178 91.4231629,4.78912019 92.1221239,4.78912019 C92.6812928,4.78912019 93.1443476,4.8823136 93.5113022,5.06870323 C93.8782568,5.25509285 94.1607493,5.49972557 94.3587883,5.80260871 C94.5568273,6.10549185 94.6791436,6.45496716 94.725741,6.85104512 C94.7723384,7.24712307 94.7665138,7.66066885 94.7082671,8.09169487 L93.9743616,13.3862987 L91.8774888,13.3862987 L92.4716028,9.14013127 C92.5065508,8.90714424 92.5298492,8.64795005 92.5414985,8.36254094 C92.5531479,8.07713182 92.5269372,7.80920075 92.4628658,7.55873969 C92.3987943,7.30827863 92.2735657,7.09859345 92.0871761,6.92967785 C91.9007864,6.76076225 91.6270308,6.67630572 91.2659009,6.67630572 C90.9164203,6.67630572 90.6135417,6.7345516 90.357256,6.85104512 C90.1009703,6.96753863 89.8825482,7.12480252 89.7019832,7.3228415 C89.5214183,7.52088048 89.3758036,7.74803943 89.2651347,8.00432516 C89.1544659,8.2606109 89.0816585,8.52854197 89.0467105,8.80812641 L88.4176486,13.3862987 L86.3207758,13.3862987 L87.4915298,4.99880747 Z M95.4520017,6.78114936 L95.6966369,4.99880747 L97.4265569,4.99880747 L97.7585618,2.56992979 L99.8554346,2.56992979 L99.5234297,4.99880747 L101.82999,4.99880747 L101.585355,6.78114936 L99.2787946,6.78114936 L98.7545764,10.4506768 C98.6963296,10.8700534 98.7283648,11.202055 98.850683,11.4466914 C98.9730012,11.6913277 99.2671429,11.8136441 99.733117,11.8136441 C99.9195066,11.8136441 100.12628,11.793258 100.353442,11.7524853 C100.580604,11.7117126 100.764079,11.6447298 100.903871,11.551535 L100.659236,13.316403 C100.426249,13.4212471 100.146669,13.4940545 99.8204867,13.5348272 C99.4943049,13.5755999 99.2089,13.595986 98.9642637,13.595986 C98.4050948,13.595986 97.9566015,13.5348278 97.6187703,13.4125096 C97.2809391,13.2901914 97.0275695,13.1038046 96.8586539,12.8533435 C96.6897383,12.6028825 96.5936326,12.291267 96.5703339,11.9184877 C96.5470352,11.5457085 96.5703335,11.1146889 96.6402296,10.6254162 L97.1819218,6.78114936 L95.4520017,6.78114936 Z M106.85484,12.2330187 L106.802418,12.2330187 C106.429639,12.7106421 105.995707,13.0572051 105.500609,13.2727181 C105.005512,13.4882311 104.478387,13.595986 103.919218,13.595986 C103.534789,13.595986 103.164928,13.5435647 102.809623,13.4387205 C102.454317,13.3338764 102.148527,13.1766125 101.892241,12.9669242 C101.635955,12.7572358 101.443744,12.4951293 101.315601,12.1805968 C101.187458,11.8660644 101.15251,11.4991153 101.210757,11.0797386 C101.303952,10.4040762 101.554409,9.87112638 101.962137,9.4808731 C102.369864,9.09061982 102.853305,8.79647811 103.412474,8.59843913 C103.971642,8.40040015 104.562838,8.27808379 105.186078,8.23148639 C105.809319,8.18488898 106.383041,8.16159063 106.907262,8.16159063 L107.43148,8.16159063 L107.448954,7.9344294 C107.530499,7.41020858 107.408183,7.01704886 107.082001,6.75493845 C106.755819,6.49282804 106.31315,6.3617748 105.753982,6.3617748 C105.311306,6.3617748 104.886111,6.44040674 104.478384,6.59767299 C104.070657,6.75493923 103.709532,6.96753671 103.395,7.2354718 L102.451407,6.13461357 C102.975628,5.65699016 103.566823,5.31333944 104.225012,5.10365111 C104.8832,4.89396278 105.544291,4.78912019 106.208304,4.78912019 C106.802421,4.78912019 107.294599,4.85610295 107.684852,4.9900705 C108.075105,5.12403804 108.389633,5.2958634 108.628445,5.50555173 C108.867256,5.71524006 109.039082,5.95696048 109.143926,6.23072024 C109.24877,6.50448001 109.312841,6.78114796 109.336139,7.0607324 C109.359438,7.34031684 109.356526,7.6111602 109.327402,7.87327061 C109.298279,8.13538103 109.272068,8.36545227 109.24877,8.56349125 L108.58476,13.3862987 L106.697574,13.3862987 L106.85484,12.2330187 Z M107.099475,9.62940159 L106.662626,9.62940159 C106.371393,9.62940159 106.042303,9.64105077 105.675349,9.66434947 C105.308394,9.68764818 104.958919,9.74298177 104.626912,9.83035191 C104.294906,9.91772204 104.006589,10.045863 103.761952,10.2147786 C103.517316,10.3836942 103.371701,10.61959 103.325104,10.9224732 C103.301805,11.1205121 103.325104,11.2865129 103.395,11.4204805 C103.464896,11.554448 103.563914,11.6680275 103.692057,11.7612223 C103.820199,11.8544171 103.965814,11.9213999 104.128905,11.9621726 C104.291996,12.0029453 104.460909,12.0233314 104.635649,12.0233314 C105.357909,12.0233314 105.91707,11.851506 106.313148,11.5078502 C106.709226,11.1641943 106.948034,10.6953149 107.029579,10.101198 L107.099475,9.62940159 Z M111.87969,0.176 L113.976563,0.176 L112.124325,13.3862987 L110.027452,13.3862987 L111.87969,0.176 Z" id="Chicago-Dental" fill="#5C5C5C"></path>
                <path d="M8.50940116,27.6644493 L8.53399411,27.6644493 L11.7802639,20.2127846 L12.8377608,20.2127846 L13.9690367,27.6644493 L13.9936296,27.6644493 L17.1169346,20.2127846 L18.1006527,20.2127846 L14.3010415,28.9186899 L13.2681375,28.9186899 L12.1245652,21.4670252 L12.0999723,21.4670252 L8.86599897,28.9186899 L7.83309496,28.9186899 L6.49277904,20.2127846 L7.47649715,20.2127846 L8.50940116,27.6644493 Z M21.7986562,25.5986413 C21.8724355,25.0493959 21.7699658,24.6046778 21.4912443,24.2644736 C21.2125228,23.9242694 20.7780516,23.7541698 20.1878178,23.7541698 C19.9254917,23.7541698 19.6652189,23.8054046 19.4069916,23.9078758 C19.1487643,24.0103469 18.9151336,24.1476562 18.7060924,24.3198078 C18.4970513,24.4919593 18.3208035,24.6887009 18.1773439,24.9100386 C18.0338843,25.1313763 17.9457605,25.3609082 17.9129697,25.5986413 L21.7986562,25.5986413 Z M17.7900049,26.262651 C17.7736095,26.5495702 17.8063998,26.82009 17.8883767,27.0742185 C17.9703537,27.3283469 18.0912678,27.5476319 18.2511228,27.7320799 C18.4109778,27.916528 18.6077194,28.0620349 18.8413537,28.1686049 C19.0749879,28.2751749 19.3352607,28.328459 19.6221799,28.328459 C20.0566576,28.328459 20.4460421,28.2280388 20.7903452,28.0271954 C21.1346482,27.8263519 21.405168,27.5947706 21.6019126,27.3324445 L22.155254,27.8488965 C21.7535671,28.2833741 21.3313923,28.5948818 20.888717,28.7834287 C20.4460416,28.9719756 19.9869778,29.0662476 19.5115116,29.0662476 C19.0852316,29.0662476 18.7019953,28.9904201 18.3617911,28.8387628 C18.0215869,28.6871055 17.7367213,28.4760181 17.507186,28.2054943 C17.2776506,27.9349705 17.1136992,27.6152653 17.0153269,27.2463691 C16.9169546,26.877473 16.9005595,26.4757921 16.966141,26.0413144 C17.0235249,25.6068368 17.1526366,25.2051559 17.35348,24.8362598 C17.5543235,24.4673636 17.8043493,24.1476584 18.1035651,23.8771346 C18.4027808,23.6066108 18.7388812,23.3955234 19.1118761,23.2438661 C19.4848711,23.0922088 19.876305,23.0163813 20.2861896,23.0163813 C20.7206673,23.0163813 21.0998049,23.0942582 21.4236137,23.2500143 C21.7474225,23.4057705 22.0076953,23.6127591 22.2044399,23.8709864 C22.4011846,24.1292137 22.5384938,24.4325237 22.6163719,24.7809256 C22.69425,25.1293275 22.7044969,25.5002675 22.6471131,25.8937567 L22.5856307,26.262651 L17.7900049,26.262651 Z M28.6691506,26.0413144 C28.7183368,25.7216045 28.7101392,25.4223932 28.6445577,25.1436717 C28.5789761,24.8649501 28.4662596,24.6231219 28.3064046,24.4181796 C28.1465496,24.2132373 27.9416104,24.0513353 27.6915808,23.9324687 C27.4415512,23.8136022 27.1484881,23.7541698 26.8123827,23.7541698 C26.4762773,23.7541698 26.1606709,23.8136022 25.865554,23.9324687 C25.5704371,24.0513353 25.3060655,24.2132373 25.0724313,24.4181796 C24.8387971,24.6231219 24.6461542,24.8649501 24.4944969,25.1436717 C24.3428396,25.4223932 24.2424194,25.7216045 24.1932332,26.0413144 C24.1440471,26.3610244 24.1583928,26.6602357 24.2362709,26.9389572 C24.314149,27.2176787 24.4412113,27.459507 24.6174617,27.6644493 C24.793712,27.8693916 25.012997,28.0312936 25.2753232,28.1501601 C25.5376493,28.2690267 25.8368606,28.328459 26.1729659,28.328459 C26.5090713,28.328459 26.8185295,28.2690267 27.1013499,28.1501601 C27.3841703,28.0312936 27.6341961,27.8693916 27.851435,27.6644493 C28.0686738,27.459507 28.2469709,27.2176787 28.3863317,26.9389572 C28.5256924,26.6602357 28.6199645,26.3610244 28.6691506,26.0413144 Z M24.316198,19.6225538 L25.1277654,19.6225538 L24.5006451,24.1230641 L24.5252381,24.1230641 C24.6809942,23.9263195 24.8592914,23.7582694 25.0601348,23.6189086 C25.2609783,23.4795478 25.4659175,23.3647819 25.6749586,23.2746073 C25.8839998,23.1844327 26.0950872,23.1188521 26.3082272,23.0778636 C26.5213672,23.0368752 26.7222076,23.0163813 26.9107545,23.0163813 C27.3616276,23.0163813 27.7633084,23.0922088 28.1158092,23.2438661 C28.4683099,23.3955234 28.761373,23.6066108 28.9950073,23.8771346 C29.2286415,24.1476584 29.3946422,24.4673636 29.4930146,24.8362598 C29.5913869,25.2051559 29.6118808,25.6068368 29.5544969,26.0413144 C29.4889154,26.4757921 29.3557049,26.877473 29.1548615,27.2463691 C28.954018,27.6152653 28.6998934,27.9349705 28.3924799,28.2054943 C28.0850665,28.4760181 27.732571,28.6871055 27.3349829,28.8387628 C26.9373949,28.9904201 26.5131707,29.0662476 26.0622976,29.0662476 C25.8737507,29.0662476 25.6790585,29.0457537 25.478215,29.0047652 C25.2773716,28.9637768 25.0826793,28.8981962 24.8941324,28.8080216 C24.7055855,28.717847 24.5334365,28.6030811 24.3776804,28.4637203 C24.2219242,28.3243595 24.0907631,28.1563094 23.9841931,27.9595648 L23.9596002,27.9595648 L23.8243389,28.9186899 L23.0127715,28.9186899 L24.316198,19.6225538 Z M33.7534201,28.1071225 L35.4749268,28.1071225 C36.1389398,28.1071225 36.7291648,28.0067023 37.2456194,27.8058588 C37.762074,27.6050154 38.2047427,27.3385944 38.5736388,27.0065878 C38.942535,26.6745813 39.235598,26.2974931 39.4528369,25.875312 C39.6700757,25.4531309 39.8114838,25.0166103 39.8770653,24.5657373 C39.9344492,24.1148642 39.9160046,23.6783437 39.8217312,23.2561625 C39.7274577,22.8339814 39.540963,22.4568932 39.2622415,22.1248867 C38.98352,21.7928802 38.6146294,21.5264592 38.1555586,21.3256158 C37.6964879,21.1247723 37.1349544,21.0243521 36.4709414,21.0243521 L34.7494347,21.0243521 L33.7534201,28.1071225 Z M33.9870531,20.2127846 L36.8767251,20.2127846 C37.4177727,20.2127846 37.9485653,20.3029579 38.4691188,20.4833071 C38.9896722,20.6636563 39.4425879,20.9362255 39.8278794,21.3010228 C40.2131709,21.6658201 40.5021352,22.1207852 40.694781,22.6659317 C40.8874267,23.2110782 40.9345628,23.8443404 40.8361905,24.5657373 C40.7378182,25.2953319 40.512385,25.9306435 40.1598843,26.4716911 C39.8073835,27.0127388 39.3893075,27.4656545 38.9056437,27.8304518 C38.4219799,28.195249 37.8932367,28.4678182 37.3193982,28.6481674 C36.7455598,28.8285167 36.1881251,28.9186899 35.6470774,28.9186899 L32.7574055,28.9186899 L33.9870531,20.2127846 Z M45.9605852,25.5986413 C46.0343645,25.0493959 45.9318948,24.6046778 45.6531733,24.2644736 C45.3744518,23.9242694 44.9399806,23.7541698 44.3497468,23.7541698 C44.0874207,23.7541698 43.8271479,23.8054046 43.5689206,23.9078758 C43.3106933,24.0103469 43.0770626,24.1476562 42.8680214,24.3198078 C42.6589803,24.4919593 42.4827325,24.6887009 42.3392729,24.9100386 C42.1958133,25.1313763 42.1076895,25.3609082 42.0748987,25.5986413 L45.9605852,25.5986413 Z M41.9519339,26.262651 C41.9355386,26.5495702 41.9683288,26.82009 42.0503057,27.0742185 C42.1322827,27.3283469 42.2531968,27.5476319 42.4130518,27.7320799 C42.5729068,27.916528 42.7696484,28.0620349 43.0032827,28.1686049 C43.2369169,28.2751749 43.4971897,28.328459 43.7841089,28.328459 C44.2185866,28.328459 44.6079711,28.2280388 44.9522742,28.0271954 C45.2965772,27.8263519 45.567097,27.5947706 45.7638416,27.3324445 L46.317183,27.8488965 C45.9154961,28.2833741 45.4933213,28.5948818 45.050646,28.7834287 C44.6079706,28.9719756 44.1489068,29.0662476 43.6734406,29.0662476 C43.2471606,29.0662476 42.8639243,28.9904201 42.5237201,28.8387628 C42.1835159,28.6871055 41.8986504,28.4760181 41.669115,28.2054943 C41.4395796,27.9349705 41.2756282,27.6152653 41.1772559,27.2463691 C41.0788836,26.877473 41.0624885,26.4757921 41.12807,26.0413144 C41.1854539,25.6068368 41.3145656,25.2051559 41.515409,24.8362598 C41.7162525,24.4673636 41.9662783,24.1476584 42.2654941,23.8771346 C42.5647098,23.6066108 42.9008102,23.3955234 43.2738051,23.2438661 C43.6468001,23.0922088 44.038234,23.0163813 44.4481186,23.0163813 C44.8825963,23.0163813 45.2617339,23.0942582 45.5855427,23.2500143 C45.9093515,23.4057705 46.1696243,23.6127591 46.3663689,23.8709864 C46.5631136,24.1292137 46.7004228,24.4325237 46.7783009,24.7809256 C46.856179,25.1293275 46.8664259,25.5002675 46.8090421,25.8937567 L46.7475597,26.262651 L41.9519339,26.262651 Z M50.8390505,24.5288479 C50.7488759,24.2911148 50.6115666,24.1025707 50.4271185,23.9632099 C50.2426704,23.8238492 50.0028915,23.7541698 49.7077746,23.7541698 C49.5684139,23.7541698 49.4249564,23.770565 49.277398,23.8033557 C49.1298395,23.8361465 48.9945796,23.8873813 48.8716142,23.9570617 C48.7486489,24.0267421 48.6441299,24.1148659 48.5580541,24.2214359 C48.4719783,24.3280059 48.4166447,24.459167 48.3920517,24.6149232 C48.3510632,24.885447 48.4166438,25.0821887 48.5887953,25.2051541 C48.7609468,25.3281194 49.0314666,25.4346878 49.4003627,25.5248624 L50.1996337,25.7216061 C50.5849252,25.8117807 50.892334,25.9941766 51.1218694,26.2687993 C51.3514048,26.5434219 51.4374793,26.8856704 51.3800954,27.295555 C51.3309093,27.6070673 51.2263903,27.8755377 51.0665353,28.1009742 C50.9066803,28.3264108 50.711988,28.5108561 50.4824526,28.6543157 C50.2529173,28.7977753 49.9987926,28.9022943 49.7200711,28.9678758 C49.4413496,29.0334574 49.1626322,29.0662476 48.8839107,29.0662476 C48.4412354,29.0662476 48.0416039,28.9822226 47.6850043,28.8141699 C47.3284047,28.6461172 47.0435392,28.3571529 46.8303992,27.9472683 L47.6050772,27.4677057 C47.7362402,27.7300318 47.9145374,27.9390699 48.1399739,28.094826 C48.3654104,28.2505821 48.6502759,28.328459 48.994579,28.328459 C49.1585328,28.328459 49.3245336,28.3100145 49.4925863,28.2731249 C49.660639,28.2362353 49.8143434,28.1788523 49.9537042,28.1009742 C50.0930649,28.0230962 50.2098803,27.9226759 50.3041537,27.7997106 C50.3984272,27.6767452 50.4578596,27.5332877 50.4824526,27.3693339 C50.498848,27.2217754 50.4865517,27.0988119 50.4455632,27.0004396 C50.4045748,26.9020673 50.3389942,26.8180422 50.2488196,26.7483618 C50.158645,26.6786815 50.0500272,26.6212985 49.922963,26.5762112 C49.7958987,26.5311239 49.6585895,26.4880866 49.511031,26.4470982 L48.7486495,26.262651 C48.6502772,26.2380579 48.5232149,26.1970701 48.3674587,26.1396863 C48.2117026,26.0823024 48.0620969,25.9962279 47.9186373,25.8814603 C47.7751777,25.7666926 47.6583624,25.6170869 47.5681877,25.4326389 C47.4780131,25.2481908 47.4534204,25.0207083 47.4944089,24.7501844 C47.5353974,24.4550675 47.6296694,24.1968441 47.7772278,23.9755064 C47.9247863,23.7541687 48.1071822,23.5738222 48.324421,23.4344615 C48.5416599,23.2951007 48.7834882,23.1905817 49.0499132,23.1209013 C49.3163381,23.0512209 49.5848085,23.0163813 49.8553324,23.0163813 C50.2570193,23.0163813 50.6197617,23.0942582 50.9435705,23.2500143 C51.2673793,23.4057705 51.4989607,23.6721914 51.6383214,24.0492853 L50.8390505,24.5288479 Z M54.0328984,20.9505732 C54.0083054,21.1227248 53.9263297,21.2641328 53.7869689,21.3748017 C53.6476081,21.4854705 53.5041507,21.5408041 53.3565922,21.5408041 C53.2090338,21.5408041 53.0819715,21.4854705 52.9754015,21.3748017 C52.8688315,21.2641328 52.8278436,21.1227248 52.8524367,20.9505732 C52.8770298,20.7784217 52.9590055,20.6370136 53.0983662,20.5263448 C53.237727,20.415676 53.3811844,20.3603424 53.5287429,20.3603424 C53.6763014,20.3603424 53.8033637,20.415676 53.9099337,20.5263448 C54.0165037,20.6370136 54.0574915,20.7784217 54.0328984,20.9505732 Z M52.7294719,28.9186899 L51.9179045,28.9186899 L52.7294719,23.163939 L53.5410394,23.163939 L52.7294719,28.9186899 Z M55.0133807,25.9675356 C54.9723922,26.2708502 54.9867379,26.5557157 55.0564183,26.8221407 C55.1260987,27.0885657 55.2429141,27.3221964 55.4068679,27.5230398 C55.5708217,27.7238833 55.7737116,27.8837359 56.0155435,28.0026024 C56.2573754,28.121469 56.5299446,28.1809013 56.8332592,28.1809013 C57.1283761,28.1809013 57.4173404,28.1276171 57.7001607,28.0210471 C57.9829811,27.9144771 58.2391551,27.7648715 58.4686905,27.5722258 C58.6982259,27.37958 58.8908688,27.1479987 59.0466249,26.8774748 C59.2023811,26.606951 59.2966531,26.303641 59.3294439,25.9675356 C59.3704323,25.664221 59.3601854,25.3793555 59.2987027,25.1129305 C59.23722,24.8465055 59.1265528,24.6128748 58.9666978,24.4120313 C58.8068428,24.2111879 58.5998542,24.0513353 58.3457258,23.9324687 C58.0915973,23.8136022 57.7964848,23.7541698 57.4603795,23.7541698 C57.1570649,23.7541698 56.8681006,23.8136022 56.5934779,23.9324687 C56.3188552,24.0513353 56.0708787,24.2111879 55.8495411,24.4120313 C55.6282034,24.6128748 55.4437581,24.8465055 55.2961996,25.1129305 C55.1486412,25.3793555 55.0543691,25.664221 55.0133807,25.9675356 Z M54.2878886,30.0745587 C54.4764355,30.3942687 54.7490046,30.6504427 55.1056042,30.8430885 C55.4622038,31.0357342 55.8741317,31.1320557 56.3414001,31.1320557 C56.7512847,31.1320557 57.107879,31.0726233 57.4111936,30.9537568 C57.7145082,30.8348902 57.9686328,30.6729882 58.1735751,30.4680459 C58.3785174,30.2631036 58.53837,30.0233247 58.6531377,29.7487021 C58.7679054,29.4740794 58.849881,29.1810163 58.8990672,28.869504 L59.0343284,27.8366 L59.0097355,27.8366 C58.6982232,28.2300892 58.3416289,28.5088066 57.939942,28.6727604 C57.5382551,28.8367142 57.1283767,28.9186899 56.7102944,28.9186899 C56.2922121,28.9186899 55.9110252,28.8449118 55.5667221,28.6973533 C55.222419,28.5497949 54.9334547,28.3469051 54.6998205,28.0886778 C54.4661863,27.8304505 54.2960867,27.5209922 54.1895167,27.1602938 C54.0829467,26.7995954 54.058354,26.4102108 54.1157379,25.9921285 C54.1731217,25.5740463 54.3022334,25.1846617 54.5030769,24.8239633 C54.7039203,24.4632648 54.9518968,24.1476584 55.2470137,23.8771346 C55.5421306,23.6066108 55.8782309,23.3955234 56.2553248,23.2438661 C56.6324186,23.0922088 57.0340995,23.0163813 57.4603795,23.0163813 C57.632531,23.0163813 57.8128775,23.0327764 58.0014244,23.0655672 C58.1899713,23.0983579 58.3744166,23.1557409 58.5547659,23.2377178 C58.7351151,23.3196948 58.9093134,23.4324113 59.0773661,23.5758709 C59.2454188,23.7193305 59.3991232,23.9017265 59.538484,24.1230641 L59.5630769,24.1230641 L59.6983382,23.163939 L60.5099056,23.163939 L59.7106346,28.869504 C59.6614485,29.1810163 59.5733246,29.5130178 59.4462604,29.8655186 C59.3191962,30.2180193 59.1224545,30.5418233 58.8560295,30.8369402 C58.5896045,31.1320571 58.2412079,31.3779842 57.810829,31.5747288 C57.3804502,31.7714734 56.8414601,31.8698442 56.1938424,31.8698442 C55.0707586,31.8698442 54.2018163,31.4845585 53.5869894,30.7139755 L54.2878886,30.0745587 Z M62.42492,23.163939 C62.4167223,23.3196951 62.404426,23.4733995 62.3880306,23.6250568 C62.3716352,23.7767141 62.3511413,23.9304186 62.3265482,24.0861747 L62.3511412,24.0861747 C62.4577112,23.9304186 62.5909217,23.7869611 62.7507766,23.655798 C62.9106316,23.524635 63.0827806,23.4119184 63.2672287,23.3176449 C63.4516767,23.2233715 63.6443196,23.1495934 63.845163,23.0963084 C64.0460065,23.0430234 64.2406988,23.0163813 64.4292457,23.0163813 C65.1670379,23.0163813 65.6855342,23.2110735 65.9847499,23.6004639 C66.2839657,23.9898543 66.3843859,24.5452395 66.2860136,25.2666364 L65.7695616,28.9186899 L64.9579942,28.9186899 L65.4006673,25.7339025 C65.4498535,25.4141926 65.4662486,25.1313764 65.4498532,24.8854457 C65.4334578,24.6395149 65.3781242,24.4325263 65.2838508,24.2644736 C65.1895773,24.0964209 65.0481693,23.9693586 64.8596223,23.8832828 C64.6710754,23.7972071 64.4251484,23.7541698 64.1218338,23.7541698 C64.0808453,23.7541698 63.9640299,23.770565 63.7713842,23.8033557 C63.5787384,23.8361465 63.367651,23.9263198 63.1381157,24.0738782 C62.9085803,24.2214367 62.6913447,24.442771 62.4864024,24.737888 C62.2814601,25.0330049 62.1421014,25.4428833 62.0683222,25.9675356 L61.650242,28.9186899 L60.8386746,28.9186899 L61.4657949,24.430476 C61.4903879,24.2747199 61.5129313,24.0779782 61.5334255,23.8402452 C61.5539197,23.6025121 61.5723642,23.377079 61.5887596,23.163939 L62.42492,23.163939 Z" id="Web-Design" fill="#797979"></path>
            </g>
        </g>
    </g>
</svg>